<?xml version="1.0" encoding="UTF-8"?>
<!DOCTYPE svg PUBLIC "-//W3C//DTD SVG 1.0//EN" "http://www.w3.org/TR/2001/REC-SVG-20010904/DTD/svg10.dtd">
<!-- Creator: CorelDRAW 2020 (64-Bit) -->
<svg xmlns="http://www.w3.org/2000/svg" xml:space="preserve" width="136.685mm" height="205.118mm" version="1.0" style="shape-rendering:geometricPrecision; text-rendering:geometricPrecision; image-rendering:optimizeQuality; fill-rule:evenodd; clip-rule:evenodd"
viewBox="0 0 17.5163 26.2861"
 xmlns:xlink="http://www.w3.org/1999/xlink"
 xmlns:xodm="http://www.corel.com/coreldraw/odm/2003">
 <defs>
  <style type="text/css">
   <![CDATA[
    .fil3 {fill:#373435}
    .fil2 {fill:#62F4F3}
    .fil0 {fill:#FEFEFE;fill-rule:nonzero}
    .fil1 {fill:#62F4F3;fill-rule:nonzero}
   ]]>
  </style>
 </defs>
 <g id="Layer_x0020_1">
  <metadata id="CorelCorpID_0Corel-Layer"/>
  <g id="_2409847564464">
   <path class="fil0" d="M1.5879 26.2465l-0.4509 0 -0.1502 -0.4808c-0.0159,-0.0528 -0.0357,-0.1013 -0.0594,-0.1453 -0.0238,-0.044 -0.0524,-0.0819 -0.0854,-0.1136 -0.0335,-0.0317 -0.0735,-0.0564 -0.1202,-0.074 -0.0467,-0.0176 -0.1013,-0.0264 -0.1647,-0.0264l-0.1528 0 0 0.8402 -0.4042 0 0 -2.111 0.8336 -0.0026c0.0894,0 0.1731,0.0154 0.2505,0.0462 0.0771,0.0308 0.144,0.0735 0.2004,0.1281 0.0564,0.0546 0.1,0.1189 0.1317,0.1929 0.0317,0.074 0.0476,0.1541 0.0476,0.2404 0,0.0617 -0.0097,0.1215 -0.0291,0.1797 -0.0189,0.0581 -0.0462,0.1118 -0.081,0.1612 -0.0352,0.0493 -0.0766,0.0929 -0.1246,0.1308 -0.0484,0.0379 -0.1013,0.0665 -0.159,0.0859 0.0665,0.0247 0.1206,0.0603 0.1629,0.107 0.0418,0.0467 0.0753,0.1026 0.0995,0.1678 0.0123,0.0299 0.0238,0.0599 0.0343,0.0898 0.0101,0.0299 0.0211,0.0612 0.0326,0.0938 0.0114,0.0326 0.0238,0.0678 0.037,0.1057 0.0128,0.0379 0.0273,0.0797 0.0431,0.1255 0.0194,0.0581 0.0374,0.1079 0.0542,0.1493 0.0167,0.0414 0.0348,0.0779 0.0542,0.1096zm-0.5337 -1.4769c0,-0.0493 -0.0093,-0.0942 -0.0277,-0.1347 -0.0185,-0.0405 -0.0436,-0.0757 -0.0753,-0.1057 -0.0317,-0.0299 -0.0691,-0.0533 -0.1123,-0.07 -0.0431,-0.0167 -0.0894,-0.0251 -0.1387,-0.0251l-0.2959 0 0 0.6579 0.2959 0c0.0493,0 0.0956,-0.0075 0.1387,-0.0225 0.0431,-0.015 0.0806,-0.0365 0.1123,-0.0647 0.0317,-0.0282 0.0568,-0.0621 0.0753,-0.1017 0.0185,-0.0396 0.0277,-0.0841 0.0277,-0.1334zm7.799 1.4769l-0.4016 0 0 -1.4109 -0.6658 1.1229 -0.6394 -1.1334 0 1.4214 -0.4016 0 0 -2.1136 0.4624 0 0.5865 1.0489 0.613 -1.0489 0.4465 0 0 2.1136zm3.1422 -1.0568c0,0.1515 -0.0295,0.2941 -0.0885,0.428 -0.059,0.1339 -0.1392,0.2501 -0.2413,0.3488 -0.1022,0.0986 -0.2211,0.1766 -0.3562,0.2338 -0.1356,0.0572 -0.2796,0.0859 -0.4329,0.0859 -0.1532,0 -0.2977,-0.0286 -0.4342,-0.0859 -0.1361,-0.0572 -0.2554,-0.1352 -0.3576,-0.2338 -0.1022,-0.0986 -0.1823,-0.2144 -0.2413,-0.3474 -0.059,-0.133 -0.0885,-0.2761 -0.0885,-0.4293 0,-0.1532 0.0295,-0.2968 0.0885,-0.4307 0.059,-0.1339 0.1391,-0.2501 0.2413,-0.3488 0.1021,-0.0986 0.2215,-0.1761 0.3576,-0.2325 0.1365,-0.0564 0.2809,-0.0845 0.4342,-0.0845 0.1532,0 0.2972,0.0282 0.4329,0.0845 0.1352,0.0564 0.2541,0.1343 0.3562,0.2338 0.1021,0.0995 0.1823,0.2158 0.2413,0.3488 0.059,0.133 0.0885,0.2761 0.0885,0.4293zm-0.4095 0c0,-0.0969 -0.0185,-0.188 -0.0555,-0.2735 -0.037,-0.0854 -0.0881,-0.1603 -0.1524,-0.2246 -0.0643,-0.0643 -0.1396,-0.1154 -0.2263,-0.1532 -0.0863,-0.0379 -0.1783,-0.0568 -0.2752,-0.0568 -0.0986,0 -0.1915,0.0189 -0.2779,0.0568 -0.0867,0.0379 -0.162,0.0889 -0.2263,0.1532 -0.0643,0.0643 -0.1154,0.1391 -0.1523,0.2246 -0.037,0.0854 -0.0555,0.1766 -0.0555,0.2735 0,0.0951 0.0185,0.1858 0.0555,0.2721 0.037,0.0863 0.0881,0.1616 0.1523,0.2259 0.0643,0.0643 0.1396,0.1154 0.2263,0.1532 0.0863,0.0379 0.1792,0.0568 0.2779,0.0568 0.0969,0 0.1889,-0.0189 0.2752,-0.0568 0.0868,-0.0379 0.162,-0.0889 0.2263,-0.1532 0.0643,-0.0643 0.1154,-0.1396 0.1524,-0.2259 0.037,-0.0863 0.0555,-0.177 0.0555,-0.2721zm3.0709 1.0568l-0.4016 0 -0.9538 -1.4822 0 1.4822 -0.4016 0 0 -2.1136 0.4597 0 0.8956 1.3791 0 -1.3791 0.4016 0 0 2.1136zm2.8595 -1.0568c0,0.1462 -0.0247,0.2831 -0.074,0.4108 -0.0493,0.1277 -0.118,0.2396 -0.2061,0.3355 -0.0881,0.096 -0.1933,0.1717 -0.3157,0.2272 -0.1224,0.0555 -0.2558,0.0832 -0.4003,0.0832l-0.8824 0 0 -2.1136 0.8824 0c0.1444,0 0.2779,0.0282 0.4003,0.0846 0.1224,0.0564 0.2277,0.1321 0.3157,0.2272 0.0881,0.0951 0.1568,0.207 0.2061,0.3355 0.0493,0.1286 0.074,0.2651 0.074,0.4095zm-0.4148 -0.0106c0.0018,-0.0986 -0.0132,-0.192 -0.0449,-0.2801 -0.0317,-0.0881 -0.0775,-0.1651 -0.1374,-0.2312 -0.0599,-0.066 -0.1334,-0.118 -0.2206,-0.1559 -0.0872,-0.0379 -0.1854,-0.0568 -0.2946,-0.0568l-0.3567 0 0 1.4426 0.3567 0c0.1075,0 0.2039,-0.0181 0.2893,-0.0542 0.0854,-0.0361 0.1581,-0.0863 0.218,-0.1506 0.0599,-0.0643 0.1061,-0.14 0.1387,-0.2272 0.0326,-0.0872 0.0498,-0.1827 0.0515,-0.2867z"/>
   <path class="fil1" d="M4.5583 26.2465l-0.4491 0 -0.1955 -0.4227 -1.0251 0 -0.1981 0.4227 -0.4491 0 0.9987 -2.1136 0.3197 0 0.9987 2.1136zm-0.8058 -0.7635l-0.3514 -0.7609 -0.3567 0.7609 0.7081 0zm2.0114 0.7635l-0.4095 0 0 -2.111 0.4095 0 0 2.111z"/>
  </g>
  <path class="fil2" d="M7.027 0.085c-3.1387,0.2855 -5.39,1.2616 -6.4055,3.4909 -0.6542,1.4361 -0.6224,2.6616 -0.6207,4.3497 0.0017,1.6568 0.0041,3.3133 0.0038,4.9702 -0.0006,3.6516 -0.1501,5.8195 2.1483,7.7208 2.3585,1.9511 9.6375,1.9954 12.3459,0.5626 1.0188,-0.539 1.9409,-1.4142 2.4257,-2.544 0.6647,-1.549 0.5825,-2.5613 0.5833,-4.3589 0.0008,-1.6565 0.0037,-3.3137 -0.0011,-4.9702 -0.0085,-2.9358 0.3127,-5.7403 -2.1505,-7.6906 -1.8856,-1.493 -5.4465,-1.7928 -8.3292,-1.5306z"/>
  <g id="_2409847584816">
   <path class="fil3" d="M4.2373 8.9457c1.2808,-0.1854 2.3174,0.7528 2.4815,1.8471 0.2007,1.3385 -0.7532,2.3065 -1.8291,2.4892 -2.8814,0.4893 -3.6947,-3.8958 -0.6524,-4.3363z"/>
   <path class="fil3" d="M12.5985 8.9542c1.286,-0.2431 2.3426,0.6317 2.5473,1.6918 0.5725,2.9646 -3.7835,3.7313 -4.345,0.9051 -0.2769,-1.3936 0.6705,-2.3838 1.7977,-2.5969z"/>
  </g>
 </g>
</svg>
