<?xml version="1.0" encoding="UTF-8"?>
<!DOCTYPE svg PUBLIC "-//W3C//DTD SVG 1.0//EN" "http://www.w3.org/TR/2001/REC-SVG-20010904/DTD/svg10.dtd">
<!-- Creator: CorelDRAW 2020 (64-Bit) -->
<svg xmlns="http://www.w3.org/2000/svg" xml:space="preserve" width="143.835mm" height="215.849mm" version="1.0" style="shape-rendering:geometricPrecision; text-rendering:geometricPrecision; image-rendering:optimizeQuality; fill-rule:evenodd; clip-rule:evenodd"
viewBox="0 0 12.591 18.8948"
 xmlns:xlink="http://www.w3.org/1999/xlink"
 xmlns:xodm="http://www.corel.com/coreldraw/odm/2003">
 <defs>
  <style type="text/css">
   <![CDATA[
    .fil3 {fill:#FEFEFE}
    .fil2 {fill:#373435}
    .fil0 {fill:#373435;fill-rule:nonzero}
    .fil1 {fill:#62F4F3;fill-rule:nonzero}
   ]]>
  </style>
 </defs>
 <g id="Layer_x0020_1">
  <metadata id="CorelCorpID_0Corel-Layer"/>
  <g id="_2409586541488">
   <path class="fil0" d="M1.1414 18.8664l-0.3241 0 -0.1079 -0.3456c-0.0114,-0.038 -0.0256,-0.0728 -0.0427,-0.1045 -0.0171,-0.0316 -0.0377,-0.0589 -0.0614,-0.0817 -0.0241,-0.0228 -0.0529,-0.0405 -0.0864,-0.0532 -0.0336,-0.0127 -0.0728,-0.019 -0.1184,-0.019l-0.1098 0 0 0.6039 -0.2906 0 0 -1.5174 0.5992 -0.0019c0.0643,0 0.1244,0.0111 0.1801,0.0332 0.0554,0.0222 0.1035,0.0529 0.144,0.0921 0.0405,0.0393 0.0719,0.0855 0.0946,0.1386 0.0228,0.0532 0.0342,0.1108 0.0342,0.1728 0,0.0443 -0.007,0.0874 -0.0209,0.1291 -0.0136,0.0418 -0.0332,0.0804 -0.0582,0.1158 -0.0253,0.0355 -0.0551,0.0668 -0.0896,0.094 -0.0348,0.0272 -0.0728,0.0478 -0.1143,0.0617 0.0478,0.0177 0.0867,0.0434 0.1171,0.0769 0.0301,0.0336 0.0541,0.0738 0.0715,0.1206 0.0089,0.0215 0.0171,0.0431 0.0247,0.0646 0.0073,0.0215 0.0152,0.044 0.0234,0.0674 0.0082,0.0234 0.0171,0.0487 0.0266,0.076 0.0092,0.0272 0.0196,0.0573 0.031,0.0902 0.0139,0.0418 0.0269,0.0775 0.0389,0.1073 0.012,0.0298 0.025,0.056 0.0389,0.0788zm-0.3836 -1.0616c0,-0.0355 -0.0066,-0.0677 -0.0199,-0.0969 -0.0133,-0.0291 -0.0313,-0.0544 -0.0541,-0.076 -0.0228,-0.0215 -0.0497,-0.0383 -0.0807,-0.0503 -0.031,-0.012 -0.0643,-0.018 -0.0997,-0.018l-0.2127 0 0 0.4729 0.2127 0c0.0355,0 0.0687,-0.0054 0.0997,-0.0161 0.031,-0.0108 0.0579,-0.0263 0.0807,-0.0465 0.0228,-0.0203 0.0408,-0.0446 0.0541,-0.0731 0.0133,-0.0285 0.0199,-0.0605 0.0199,-0.0959zm5.6061 1.0616l-0.2887 0 0 -1.0141 -0.4786 0.8071 -0.4596 -0.8147 0 1.0217 -0.2887 0 0 -1.5193 0.3324 0 0.4216 0.754 0.4406 -0.754 0.321 0 0 1.5193zm2.2587 -0.7597c0,0.1089 -0.0212,0.2114 -0.0636,0.3077 -0.0424,0.0962 -0.1,0.1798 -0.1735,0.2507 -0.0734,0.0709 -0.1589,0.1269 -0.2561,0.1681 -0.0975,0.0412 -0.201,0.0617 -0.3111,0.0617 -0.1101,0 -0.214,-0.0206 -0.3121,-0.0617 -0.0978,-0.0411 -0.1836,-0.0972 -0.257,-0.1681 -0.0734,-0.0709 -0.131,-0.1541 -0.1735,-0.2497 -0.0424,-0.0956 -0.0636,-0.1985 -0.0636,-0.3086 0,-0.1101 0.0212,-0.2133 0.0636,-0.3096 0.0424,-0.0962 0.1,-0.1798 0.1735,-0.2507 0.0734,-0.0709 0.1592,-0.1266 0.257,-0.1671 0.0981,-0.0405 0.2019,-0.0608 0.3121,-0.0608 0.1101,0 0.2137,0.0203 0.3111,0.0608 0.0972,0.0405 0.1826,0.0965 0.2561,0.1681 0.0734,0.0715 0.131,0.1551 0.1735,0.2507 0.0424,0.0956 0.0636,0.1985 0.0636,0.3086zm-0.2944 0c0,-0.0696 -0.0133,-0.1352 -0.0399,-0.1966 -0.0266,-0.0614 -0.0633,-0.1152 -0.1095,-0.1614 -0.0462,-0.0462 -0.1003,-0.0829 -0.1627,-0.1101 -0.062,-0.0272 -0.1282,-0.0408 -0.1978,-0.0408 -0.0709,0 -0.1377,0.0136 -0.1997,0.0408 -0.0624,0.0272 -0.1165,0.0639 -0.1627,0.1101 -0.0462,0.0462 -0.0829,0.1 -0.1095,0.1614 -0.0266,0.0614 -0.0399,0.1269 -0.0399,0.1966 0,0.0684 0.0133,0.1336 0.0399,0.1956 0.0266,0.062 0.0633,0.1162 0.1095,0.1624 0.0462,0.0462 0.1003,0.0829 0.1627,0.1101 0.062,0.0272 0.1288,0.0408 0.1997,0.0408 0.0696,0 0.1358,-0.0136 0.1978,-0.0408 0.0624,-0.0272 0.1165,-0.0639 0.1627,-0.1101 0.0462,-0.0462 0.0829,-0.1003 0.1095,-0.1624 0.0266,-0.062 0.0399,-0.1272 0.0399,-0.1956zm2.2074 0.7597l-0.2887 0 -0.6856 -1.0654 0 1.0654 -0.2887 0 0 -1.5193 0.3305 0 0.6438 0.9914 0 -0.9914 0.2887 0 0 1.5193zm2.0554 -0.7597c0,0.1051 -0.0177,0.2035 -0.0532,0.2953 -0.0354,0.0918 -0.0848,0.1722 -0.1481,0.2412 -0.0633,0.069 -0.139,0.1234 -0.2269,0.1633 -0.088,0.0399 -0.1839,0.0598 -0.2877,0.0598l-0.6343 0 0 -1.5193 0.6343 0c0.1038,0 0.1997,0.0203 0.2877,0.0608 0.088,0.0405 0.1636,0.095 0.2269,0.1633 0.0633,0.0684 0.1127,0.1488 0.1481,0.2412 0.0355,0.0924 0.0532,0.1905 0.0532,0.2944zm-0.2982 -0.0076c0.0013,-0.0709 -0.0095,-0.138 -0.0323,-0.2013 -0.0228,-0.0633 -0.0557,-0.1187 -0.0987,-0.1662 -0.0431,-0.0475 -0.0959,-0.0848 -0.1586,-0.112 -0.0627,-0.0272 -0.1332,-0.0408 -0.2118,-0.0408l-0.2564 0 0 1.0369 0.2564 0c0.0772,0 0.1466,-0.013 0.208,-0.0389 0.0614,-0.026 0.1136,-0.062 0.1567,-0.1082 0.0431,-0.0462 0.0763,-0.1007 0.0997,-0.1633 0.0234,-0.0627 0.0358,-0.1314 0.037,-0.2061z"/>
   <path class="fil1" d="M3.2766 18.8664l-0.3228 0 -0.1405 -0.3039 -0.7369 0 -0.1424 0.3039 -0.3228 0 0.7179 -1.5193 0.2298 0 0.7179 1.5193zm-0.5792 -0.5489l-0.2526 -0.547 -0.2564 0.547 0.509 0zm1.4458 0.5489l-0.2944 0 0 -1.5174 0.2944 0 0 1.5174z"/>
  </g>
  <path class="fil2" d="M5.0511 0.0611c-2.2561,0.2052 -3.8744,0.9069 -4.6044,2.5093 -0.4703,1.0323 -0.4474,1.9132 -0.4462,3.1266 0.0012,1.1909 0.0029,2.3817 0.0027,3.5726 -0.0004,2.6248 -0.1079,4.1831 1.5442,5.5498 1.6954,1.4025 6.9276,1.4344 8.8745,0.4044 0.7323,-0.3874 1.3952,-1.0166 1.7436,-1.8287 0.4778,-1.1135 0.4187,-1.8411 0.4193,-3.1332 0.0006,-1.1907 0.0026,-2.3819 -0.0008,-3.5726 -0.0061,-2.1103 0.2248,-4.1262 -1.5458,-5.5281 -1.3554,-1.0732 -3.915,-1.2887 -5.9871,-1.1002z"/>
  <path class="fil3" d="M9.056 6.4364c0.9244,-0.1748 1.6839,0.4541 1.8311,1.2161 0.4115,2.131 -2.7196,2.6821 -3.1233,0.6506 -0.199,-1.0017 0.4819,-1.7135 1.2922,-1.8667zm-6.0102 -0.0062c0.9207,-0.1333 1.6658,0.5411 1.7837,1.3277 0.1442,0.9621 -0.5414,1.658 -1.3148,1.7893 -2.0712,0.3517 -2.6558,-2.8004 -0.4689,-3.117z"/>
 </g>
</svg>
